<svg width="27" height="31" viewBox="0 0 27 31" fill="none" xmlns="http://www.w3.org/2000/svg">
<path d="M25.6255 24.6684L21.1913 19.4647L17.7805 17.8111C18.9162 15.9159 19.5246 13.6549 19.5224 11.338C19.5224 5.10987 15.2047 0.0429688 9.89744 0.0429688C4.59019 0.0429688 0.272461 5.10987 0.272461 11.338C0.272461 17.5661 4.59019 22.633 9.89744 22.633C11.889 22.6356 13.8316 21.9093 15.4547 20.5551L16.8602 24.5469L21.2943 29.7508C21.5787 30.0846 21.9163 30.3493 22.2878 30.5299C22.6594 30.7105 23.0576 30.8035 23.4598 30.8035C23.862 30.8035 24.2602 30.7106 24.6318 30.53C25.0034 30.3494 25.341 30.0847 25.6254 29.751C25.9098 29.4173 26.1354 29.0211 26.2893 28.585C26.4432 28.149 26.5224 27.6817 26.5225 27.2097C26.5225 26.7378 26.4433 26.2704 26.2894 25.8344C26.1355 25.3983 25.9099 25.0021 25.6255 24.6684ZM2.02246 11.338C2.02246 6.24238 5.55526 2.09661 9.89744 2.09661C14.2396 2.09661 17.7724 6.24238 17.7724 11.338C17.7724 16.4336 14.2396 20.5793 9.89744 20.5793C5.55526 20.5793 2.02246 16.4336 2.02246 11.338ZM24.388 28.2987C24.1417 28.5871 23.8079 28.7491 23.4599 28.7491C23.1119 28.7491 22.7781 28.5871 22.5318 28.2987L18.3443 23.3846L17.0376 19.673L20.2005 21.2064L24.3881 26.1205C24.6339 26.4096 24.7719 26.8013 24.7718 27.2096C24.7718 27.618 24.6338 28.0096 24.388 28.2987Z" fill="#E4EAEA"/>
</svg>
